<svg id="SvgjsSvg1001" width="860.68359375" height="420.21484375" xmlns="http://www.w3.org/2000/svg" version="1.1" xmlns:xlink="http://www.w3.org/1999/xlink" xmlns:svgjs="http://svgjs.com/svgjs"><defs id="SvgjsDefs1002"><pattern id="SvgjsPattern1010" x="0" y="0" width="222.28702163061564" height="136.77189683860234" patternUnits="userSpaceOnUse"><image id="SvgjsImage1011" xlink:href="https://cdn.processon.com/64607568aba17c444f9b6e82?e=1684046713&amp;token=trhI0BY8QfVrIGn9nENop6JAc6l5nZuxhjQ62UfM:2bWTiqwLjB8q1_CZTTlWOtxfnws=" width="222.28702163061564" height="136.77189683860234" preserveAspectRatio="none" crossOrigin="anonymous" x="0" y="0"></image></pattern><pattern id="SvgjsPattern1014" x="0" y="0" width="222.28702163061564" height="136.77189683860234" patternUnits="userSpaceOnUse"><image id="SvgjsImage1015" xlink:href="https://cdn.processon.com/64607568aba17c444f9b6e82?e=1684046713&amp;token=trhI0BY8QfVrIGn9nENop6JAc6l5nZuxhjQ62UfM:2bWTiqwLjB8q1_CZTTlWOtxfnws=" width="222.28702163061564" height="136.77189683860234" preserveAspectRatio="none" crossOrigin="anonymous" x="0" y="0"></image></pattern><pattern id="SvgjsPattern1018" x="0" y="0" width="222.28702163061564" height="136.77189683860234" patternUnits="userSpaceOnUse"><image id="SvgjsImage1019" xlink:href="https://cdn.processon.com/64607568aba17c444f9b6e82?e=1684046713&amp;token=trhI0BY8QfVrIGn9nENop6JAc6l5nZuxhjQ62UfM:2bWTiqwLjB8q1_CZTTlWOtxfnws=" width="222.28702163061564" height="136.77189683860234" preserveAspectRatio="none" crossOrigin="anonymous" x="0" y="0"></image></pattern><marker id="SvgjsMarker1086" markerWidth="14" markerHeight="10" refX="10" refY="5" viewBox="0 0 14 10" orient="auto" markerUnits="userSpaceOnUse" stroke-dasharray="0,0"><path id="SvgjsPath1087" d="M0,0 L14,5 L0,10 L0,0" fill="#323232" stroke="#323232" stroke-width="1"></path></marker><marker id="SvgjsMarker1090" markerWidth="14" markerHeight="10" refX="10" refY="5" viewBox="0 0 14 10" orient="auto" markerUnits="userSpaceOnUse" stroke-dasharray="0,0"><path id="SvgjsPath1091" d="M0,0 L14,5 L0,10 L0,0" fill="#323232" stroke="#323232" stroke-width="1"></path></marker><marker id="SvgjsMarker1094" markerWidth="14" markerHeight="10" refX="10" refY="5" viewBox="0 0 14 10" orient="auto" markerUnits="userSpaceOnUse" stroke-dasharray="0,0"><path id="SvgjsPath1095" d="M0,0 L14,5 L0,10 L0,0" fill="#323232" stroke="#323232" stroke-width="1"></path></marker><marker id="SvgjsMarker1098" markerWidth="14" markerHeight="10" refX="10" refY="5" viewBox="0 0 14 10" orient="auto" markerUnits="userSpaceOnUse" stroke-dasharray="0,0"><path id="SvgjsPath1099" d="M0,0 L14,5 L0,10 L0,0" fill="#323232" stroke="#323232" stroke-width="1"></path></marker><marker id="SvgjsMarker1126" markerWidth="14" markerHeight="10" refX="10" refY="5" viewBox="0 0 14 10" orient="auto" markerUnits="userSpaceOnUse" stroke-dasharray="0,0"><path id="SvgjsPath1127" d="M0,0 L14,5 L0,10 L0,0" fill="#323232" stroke="#323232" stroke-width="1"></path></marker><marker id="SvgjsMarker1130" markerWidth="14" markerHeight="10" refX="10" refY="5" viewBox="0 0 14 10" orient="auto" markerUnits="userSpaceOnUse" stroke-dasharray="0,0"><path id="SvgjsPath1131" d="M0,0 L14,5 L0,10 L0,0" fill="#323232" stroke="#323232" stroke-width="1"></path></marker></defs><g id="SvgjsG1008" transform="translate(66.21578618968388,65.95466566139763)"><path id="SvgjsPath1009" d="M 0 0L 222.28702163061564 0L 222.28702163061564 136.77189683860234L 0 136.77189683860234Z" stroke="none" fill="url(#SvgjsPattern1010)"></path></g><g id="SvgjsG1012" transform="translate(46.9246048252912,48.417228057404316)"><path id="SvgjsPath1013" d="M 0 0L 222.28702163061564 0L 222.28702163061564 136.77189683860234L 0 136.77189683860234Z" stroke="none" fill="url(#SvgjsPattern1014)"></path></g><g id="SvgjsG1016" transform="translate(25.002807820299523,29.12604669301163)"><path id="SvgjsPath1017" d="M 0 0L 222.28702163061564 0L 222.28702163061564 136.77189683860234L 0 136.77189683860234Z" stroke="none" fill="url(#SvgjsPattern1018)"></path></g><g id="SvgjsG1020" transform="translate(42.9246048252912,210.2265625)"><path id="SvgjsPath1021" d="M 0 0L 222.28702163061564 0L 222.28702163061564 40L 0 40Z" stroke="none" fill="none"></path><g id="SvgjsG1022"><text id="SvgjsText1023" font-family="微软雅黑" text-anchor="middle" font-size="16px" width="223px" fill="#323232" font-weight="700" align="middle" lineHeight="125%" anchor="middle" family="微软雅黑" size="16px" weight="700" font-style="" opacity="1" y="-4" transform="rotate(0)"><tspan id="SvgjsTspan1024" dy="20" x="111.5"><tspan id="SvgjsTspan1025" style="text-decoration:;">LiDAR Point Clouds Stream</tspan></tspan><tspan id="SvgjsTspan1026" dy="20" x="111.5"><tspan id="SvgjsTspan1027" style="text-decoration:;">with Semantic</tspan></tspan></text></g></g><g id="SvgjsG1028" transform="translate(308.1875,29.12604669301163)"><path id="SvgjsPath1029" d="M 0 0L 527.75 0L 527.75 156.35051580698837L 0 156.35051580698837Z" stroke="rgba(91,121,232,1)" stroke-width="2" fill-opacity="1" fill="#ffffff"></path><g id="SvgjsG1030"><text id="SvgjsText1031" font-family="微软雅黑" text-anchor="middle" font-size="13px" width="508px" fill="#323232" font-weight="400" align="middle" lineHeight="125%" anchor="middle" family="微软雅黑" size="13px" weight="400" font-style="" opacity="1" y="67.55025790349418" transform="rotate(0)"></text></g></g><g id="SvgjsG1032" transform="translate(25.002807820299523,253.4765625)"><path id="SvgjsPath1033" d="M 0 0L 426.991264559068 0L 426.991264559068 141.5L 0 141.5Z" stroke="rgba(241,172,106,1)" stroke-width="2" fill-opacity="1" fill="#ffffff"></path><g id="SvgjsG1034"><text id="SvgjsText1035" font-family="微软雅黑" text-anchor="middle" font-size="13px" width="407px" fill="#323232" font-weight="400" align="middle" lineHeight="125%" anchor="middle" family="微软雅黑" size="13px" weight="400" font-style="" opacity="1" y="60.125" transform="rotate(0)"></text></g></g><g id="SvgjsG1036" transform="translate(476.9375,210.2265625)"><path id="SvgjsPath1037" d="M 0 0L 359 0L 359 184.75L 0 184.75Z" stroke="rgba(241,228,162,1)" stroke-width="2" fill-opacity="1" fill="#ffffff"></path><g id="SvgjsG1038"><text id="SvgjsText1039" font-family="微软雅黑" text-anchor="middle" font-size="13px" width="339px" fill="#323232" font-weight="400" align="middle" lineHeight="125%" anchor="middle" family="微软雅黑" size="13px" weight="400" font-style="" opacity="1" y="81.75" transform="rotate(0)"></text></g></g><g id="SvgjsG1040" transform="translate(319.9375,25.002918573211275)"><path id="SvgjsPath1041" d="M 0 0L 202.50000000000006 0L 202.50000000000006 40L 0 40Z" stroke="none" fill="none"></path><g id="SvgjsG1042"><text id="SvgjsText1043" font-family="微软雅黑" text-anchor="start" font-size="19px" width="203px" fill="#323232" font-weight="700" align="middle" lineHeight="125%" anchor="start" family="微软雅黑" size="19px" weight="700" font-style="" opacity="1" y="4.125" transform="rotate(0)"><tspan id="SvgjsTspan1044" dy="23" x="0"><tspan id="SvgjsTspan1045" style="text-decoration:;">Incremental Mapping</tspan></tspan></text></g></g><g id="SvgjsG1046" transform="translate(34.896318635607344,256.7265625)"><path id="SvgjsPath1047" d="M 0 0L 202.50000000000006 0L 202.50000000000006 40L 0 40Z" stroke="none" fill="none"></path><g id="SvgjsG1048"><text id="SvgjsText1049" font-family="微软雅黑" text-anchor="start" font-size="19px" width="203px" fill="#323232" font-weight="700" align="middle" lineHeight="125%" anchor="start" family="微软雅黑" size="19px" weight="700" font-style="" opacity="1" y="4.125" transform="rotate(0)"><tspan id="SvgjsTspan1050" dy="23" x="0"><tspan id="SvgjsTspan1051" style="text-decoration:;">Global Mapping</tspan></tspan></text></g></g><g id="SvgjsG1052" transform="translate(329.1875,106.4765625)"><path id="SvgjsPath1053" d="M 0 4Q 0 0 4 0L 92 0Q 96 0 96 4L 96 50Q 96 54 92 54L 4 54Q 0 54 0 50Z" stroke="rgba(91,121,232,1)" stroke-width="2" fill-opacity="1" fill="#ffffff"></path><g id="SvgjsG1054"><text id="SvgjsText1055" font-family="微软雅黑" text-anchor="middle" font-size="16px" width="76px" fill="#323232" font-weight="700" align="middle" lineHeight="125%" anchor="middle" family="微软雅黑" size="16px" weight="700" font-style="" opacity="1" y="3" transform="rotate(0)"><tspan id="SvgjsTspan1056" dy="20" x="48"><tspan id="SvgjsTspan1057" style="text-decoration:;fill: rgb(50, 50, 50);">Scan </tspan></tspan><tspan id="SvgjsTspan1058" dy="20" x="48"><tspan id="SvgjsTspan1059" style="text-decoration:;fill: rgb(50, 50, 50);">creation</tspan></tspan></text></g></g><g id="SvgjsG1060" transform="translate(459.4375,106.4765625)"><path id="SvgjsPath1061" d="M 0 4Q 0 0 4 0L 92 0Q 96 0 96 4L 96 50Q 96 54 92 54L 4 54Q 0 54 0 50Z" stroke="rgba(33,41,48,1)" stroke-width="2" fill-opacity="1" fill="#ffffff"></path><g id="SvgjsG1062"><text id="SvgjsText1063" font-family="微软雅黑" text-anchor="middle" font-size="16px" width="76px" fill="#323232" font-weight="700" align="middle" lineHeight="125%" anchor="middle" family="微软雅黑" size="16px" weight="700" font-style="" opacity="1" y="3" transform="rotate(0)"><tspan id="SvgjsTspan1064" dy="20" x="48"><tspan id="SvgjsTspan1065" style="text-decoration:;fill: rgb(50, 50, 50);">voxel </tspan></tspan><tspan id="SvgjsTspan1066" dy="20" x="48"><tspan id="SvgjsTspan1067" style="text-decoration:;fill: rgb(50, 50, 50);">creation</tspan></tspan></text></g></g><g id="SvgjsG1068" transform="translate(589.6875,106.4765625)"><path id="SvgjsPath1069" d="M 0 4Q 0 0 4 0L 92 0Q 96 0 96 4L 96 50Q 96 54 92 54L 4 54Q 0 54 0 50Z" stroke="rgba(86,146,48,1)" stroke-width="2" fill-opacity="1" fill="#ffffff"></path><g id="SvgjsG1070"><text id="SvgjsText1071" font-family="微软雅黑" text-anchor="middle" font-size="16px" width="76px" fill="#323232" font-weight="700" align="middle" lineHeight="125%" anchor="middle" family="微软雅黑" size="16px" weight="700" font-style="" opacity="1" y="3" transform="rotate(0)"><tspan id="SvgjsTspan1072" dy="20" x="48"><tspan id="SvgjsTspan1073" style="text-decoration:;fill: rgb(50, 50, 50);">volume </tspan></tspan><tspan id="SvgjsTspan1074" dy="20" x="48"><tspan id="SvgjsTspan1075" style="text-decoration:;fill: rgb(50, 50, 50);">rendering</tspan></tspan></text></g></g><g id="SvgjsG1076" transform="translate(719.9374999999999,106.4765625)"><path id="SvgjsPath1077" d="M 0 4Q 0 0 4 0L 92 0Q 96 0 96 4L 96 50Q 96 54 92 54L 4 54Q 0 54 0 50Z" stroke="rgba(91,121,232,1)" stroke-width="2" fill-opacity="1" fill="#ffffff"></path><g id="SvgjsG1078"><text id="SvgjsText1079" font-family="微软雅黑" text-anchor="middle" font-size="16px" width="76px" fill="#323232" font-weight="700" align="middle" lineHeight="125%" anchor="middle" family="微软雅黑" size="16px" weight="700" font-style="" opacity="1" y="3" transform="rotate(0)"><tspan id="SvgjsTspan1080" dy="20" x="48"><tspan id="SvgjsTspan1081" style="text-decoration:;fill: rgb(50, 50, 50);">keyframe</tspan></tspan><tspan id="SvgjsTspan1082" dy="20" x="48"><tspan id="SvgjsTspan1083" style="text-decoration:;fill: rgb(50, 50, 50);">insertion</tspan></tspan></text></g></g><g id="SvgjsG1084"><path id="SvgjsPath1085" d="M289.50280782029955 134.3406140806988L308.84515391014975 134.3406140806988L308.84515391014975 133.4765625L325.5875 133.4765625" stroke="#323232" stroke-width="2" fill="none" marker-end="url(#SvgjsMarker1086)"></path></g><g id="SvgjsG1088"><path id="SvgjsPath1089" d="M426.1875 133.4765625L442.3125 133.4765625L442.3125 133.4765625L455.8375 133.4765625" stroke="#323232" stroke-width="2" fill="none" marker-end="url(#SvgjsMarker1090)"></path></g><g id="SvgjsG1092"><path id="SvgjsPath1093" d="M556.4375 133.4765625L572.5625 133.4765625L572.5625 133.4765625L586.0875 133.4765625" stroke="#323232" stroke-width="2" fill="none" marker-end="url(#SvgjsMarker1094)"></path></g><g id="SvgjsG1096"><path id="SvgjsPath1097" d="M686.6875 133.4765625L703.3125 133.4765625L703.3125 133.4765625L717.3375 133.4765625" stroke="#323232" stroke-width="2" fill="none" marker-end="url(#SvgjsMarker1098)"></path></g><g id="SvgjsG1100" transform="translate(53.7157861896838,312.72656249999994)"><path id="SvgjsPath1101" d="M 0 4Q 0 0 4 0L 92 0Q 96 0 96 4L 96 50Q 96 54 92 54L 4 54Q 0 54 0 50Z" stroke="rgba(237,151,69,1)" stroke-width="2" fill-opacity="1" fill="#ffffff"></path><g id="SvgjsG1102"><text id="SvgjsText1103" font-family="微软雅黑" text-anchor="middle" font-size="16px" width="76px" fill="#323232" font-weight="700" align="middle" lineHeight="125%" anchor="middle" family="微软雅黑" size="16px" weight="700" font-style="" opacity="1" y="3" transform="rotate(0)"><tspan id="SvgjsTspan1104" dy="20" x="48"><tspan id="SvgjsTspan1105" style="text-decoration:;fill: rgb(50, 50, 50);">keyframe</tspan></tspan><tspan id="SvgjsTspan1106" dy="20" x="48"><tspan id="SvgjsTspan1107" style="text-decoration:;fill: rgb(50, 50, 50);">selection</tspan></tspan></text></g></g><g id="SvgjsG1108" transform="translate(187.20164309484187,312.72656249999994)"><path id="SvgjsPath1109" d="M 0 4Q 0 0 4 0L 92 0Q 96 0 96 4L 96 50Q 96 54 92 54L 4 54Q 0 54 0 50Z" stroke="rgba(86,146,48,1)" stroke-width="2" fill-opacity="1" fill="#ffffff"></path><g id="SvgjsG1110"><text id="SvgjsText1111" font-family="微软雅黑" text-anchor="middle" font-size="16px" width="76px" fill="#323232" font-weight="700" align="middle" lineHeight="125%" anchor="middle" family="微软雅黑" size="16px" weight="700" font-style="" opacity="1" y="3" transform="rotate(0)"><tspan id="SvgjsTspan1112" dy="20" x="48"><tspan id="SvgjsTspan1113" style="text-decoration:;fill: rgb(50, 50, 50);">volume </tspan></tspan><tspan id="SvgjsTspan1114" dy="20" x="48"><tspan id="SvgjsTspan1115" style="text-decoration:;fill: rgb(50, 50, 50);">rendering</tspan></tspan></text></g></g><g id="SvgjsG1116" transform="translate(320.6875,312.72656249999994)"><path id="SvgjsPath1117" d="M 0 4Q 0 0 4 0L 92 0Q 96 0 96 4L 96 50Q 96 54 92 54L 4 54Q 0 54 0 50Z" stroke="rgba(237,151,69,1)" stroke-width="2" fill-opacity="1" fill="#ffffff"></path><g id="SvgjsG1118"><text id="SvgjsText1119" font-family="微软雅黑" text-anchor="middle" font-size="16px" width="76px" fill="#323232" font-weight="700" align="middle" lineHeight="125%" anchor="middle" family="微软雅黑" size="16px" weight="700" font-style="" opacity="1" y="3" transform="rotate(0)"><tspan id="SvgjsTspan1120" dy="20" x="48"><tspan id="SvgjsTspan1121" style="text-decoration:;fill: rgb(50, 50, 50);">keyframe</tspan></tspan><tspan id="SvgjsTspan1122" dy="20" x="48"><tspan id="SvgjsTspan1123" style="text-decoration:;fill: rgb(50, 50, 50);">insertion</tspan></tspan></text></g></g><g id="SvgjsG1124"><path id="SvgjsPath1125" d="M150.7157861896838 339.7265625L168.45871464226283 339.7265625L168.45871464226283 339.72656249999994L183.60164309484188 339.72656249999994" stroke="#323232" stroke-width="2" fill="none" marker-end="url(#SvgjsMarker1126)"></path></g><g id="SvgjsG1128"><path id="SvgjsPath1129" d="M283.5907861896837 339.7265625L302.13914309484187 339.7265625L302.13914309484187 339.7265625L318.0875 339.7265625" stroke="#323232" stroke-width="2" fill="none" marker-end="url(#SvgjsMarker1130)"></path></g><g id="SvgjsG1132" transform="translate(489.9375,206.51400010399334)"><path id="SvgjsPath1133" d="M 0 0L 202.50000000000006 0L 202.50000000000006 40L 0 40Z" stroke="none" fill="none"></path><g id="SvgjsG1134"><text id="SvgjsText1135" font-family="微软雅黑" text-anchor="start" font-size="19px" width="203px" fill="#323232" font-weight="700" align="middle" lineHeight="125%" anchor="start" family="微软雅黑" size="19px" weight="700" font-style="" opacity="1" y="4.125" transform="rotate(0)"><tspan id="SvgjsTspan1136" dy="23" x="0"><tspan id="SvgjsTspan1137" style="text-decoration:;">Shared Data</tspan></tspan></text></g></g><g id="SvgjsG1138" transform="translate(486.3125,282.55143770798674)"><path id="SvgjsPath1139" d="M 0 4Q 0 0 4 0L 95.125 0Q 99.125 0 99.125 4L 99.125 50Q 99.125 54 95.125 54L 4 54Q 0 54 0 50Z" stroke="rgba(241,228,162,1)" stroke-width="2" fill-opacity="1" fill="#ffffff"></path><g id="SvgjsG1140"><text id="SvgjsText1141" font-family="微软雅黑" text-anchor="middle" font-size="16px" width="80px" fill="#323232" font-weight="700" align="middle" lineHeight="125%" anchor="middle" family="微软雅黑" size="16px" weight="700" font-style="" opacity="1" y="3" transform="rotate(0)"><tspan id="SvgjsTspan1142" dy="20" x="50"><tspan id="SvgjsTspan1143" style="text-decoration:;">keyframe</tspan></tspan><tspan id="SvgjsTspan1144" dy="20" x="50"><tspan id="SvgjsTspan1145" style="text-decoration:;">collection</tspan></tspan></text></g></g><g id="SvgjsG1146" transform="translate(605.4375,282.55143770798674)"><path id="SvgjsPath1147" d="M 0 4Q 0 0 4 0L 98 0Q 102 0 102 4L 102 50Q 102 54 98 54L 4 54Q 0 54 0 50Z" stroke="rgba(241,228,162,1)" stroke-width="2" fill-opacity="1" fill="#ffffff"></path><g id="SvgjsG1148"><text id="SvgjsText1149" font-family="微软雅黑" text-anchor="middle" font-size="16px" width="82px" fill="#323232" font-weight="700" align="middle" lineHeight="125%" anchor="middle" family="微软雅黑" size="16px" weight="700" font-style="" opacity="1" y="3" transform="rotate(0)"><tspan id="SvgjsTspan1150" dy="20" x="51"><tspan id="SvgjsTspan1151" style="text-decoration:;">embedded </tspan></tspan><tspan id="SvgjsTspan1152" dy="20" x="51"><tspan id="SvgjsTspan1153" style="text-decoration:;">voxels</tspan></tspan></text></g></g><g id="SvgjsG1154" transform="translate(727.4375,282.55143770798674)"><path id="SvgjsPath1155" d="M 0 4Q 0 0 4 0L 92 0Q 96 0 96 4L 96 50Q 96 54 92 54L 4 54Q 0 54 0 50Z" stroke="rgba(241,228,162,1)" stroke-width="2" fill-opacity="1" fill="#ffffff"></path><g id="SvgjsG1156"><text id="SvgjsText1157" font-family="微软雅黑" text-anchor="middle" font-size="16px" width="76px" fill="#323232" font-weight="700" align="middle" lineHeight="125%" anchor="middle" family="微软雅黑" size="16px" weight="700" font-style="" opacity="1" y="3" transform="rotate(0)"><tspan id="SvgjsTspan1158" dy="20" x="48"><tspan id="SvgjsTspan1159" style="text-decoration:;">implicit</tspan></tspan><tspan id="SvgjsTspan1160" dy="20" x="48"><tspan id="SvgjsTspan1161" style="text-decoration:;">decoders</tspan></tspan></text></g></g></svg>